<?xml version="1.0" standalone="no"?>
<!DOCTYPE svg PUBLIC "-//W3C//DTD SVG 20010904//EN"
 "http://www.w3.org/TR/2001/REC-SVG-20010904/DTD/svg10.dtd">
<svg version="1.0" xmlns="http://www.w3.org/2000/svg"
 width="615.000000pt" height="615.000000pt" viewBox="0 0 615.000000 615.000000"
 preserveAspectRatio="xMidYMid meet">

<g transform="translate(0.000000,615.000000) scale(0.100000,-0.100000)"
fill="#000000" stroke="none">
<path d="M760 3811 c-209 -29 -403 -162 -507 -348 -210 -374 -25 -855 381
-990 72 -24 96 -27 216 -27 120 0 144 3 216 27 132 44 255 134 340 248 19 26
34 49 34 51 0 3 -24 20 -52 38 l-53 32 -20 -28 c-11 -16 -47 -56 -80 -89 -310
-306 -839 -140 -930 293 -18 85 -18 129 0 217 32 151 131 293 256 368 100 59
177 80 294 80 166 0 290 -56 409 -184 l65 -70 50 28 c28 15 51 33 51 38 -1 17
-92 121 -145 164 -140 115 -349 176 -525 152z"/>
<path d="M728 3600 c-120 -30 -261 -145 -312 -254 -44 -94 -61 -196 -47 -286
37 -244 239 -419 482 -420 146 0 306 80 389 196 l30 42 -56 33 c-54 30 -57 31
-67 13 -5 -10 -32 -40 -59 -66 -66 -63 -139 -91 -238 -91 -140 0 -252 68 -321
195 -32 60 -34 68 -34 163 0 118 17 165 87 241 55 59 100 88 174 110 123 35
269 -7 356 -105 l42 -47 53 30 c29 17 53 34 53 38 0 4 -29 37 -64 73 -46 47
-84 75 -141 102 -73 34 -85 37 -184 39 -58 2 -123 -1 -143 -6z"/>
<path d="M5921 3474 c-12 -15 -21 -30 -21 -34 0 -19 44 -60 63 -59 22 2 22 2
-1 6 -12 2 -30 15 -38 29 -15 22 -15 26 0 48 8 14 26 27 38 29 23 4 23 4 1 6
-13 0 -30 -10 -42 -25z"/>
<path d="M6001 3468 c9 -22 9 -34 0 -55 -10 -26 -10 -27 4 -9 8 11 15 27 15
36 0 9 -7 25 -15 36 -14 18 -14 17 -4 -8z"/>
<path d="M2453 3426 l-63 -41 0 -242 c0 -258 1 -262 51 -278 26 -8 67 18 74
48 3 12 4 142 3 288 l-3 266 -62 -41z"/>
<path d="M5942 3440 c0 -19 2 -27 5 -17 2 9 2 25 0 35 -3 9 -5 1 -5 -18z"/>
<path d="M5970 3447 c0 -14 4 -28 8 -31 9 -5 8 41 -1 51 -4 3 -7 -5 -7 -20z"/>
<path d="M1873 3424 c-56 -20 -123 -81 -152 -139 -32 -65 -39 -156 -16 -226
25 -74 110 -160 180 -180 77 -22 154 -16 219 15 48 24 116 84 116 104 0 4 -21
20 -46 35 l-47 28 -26 -25 c-69 -66 -164 -71 -231 -10 -49 44 -64 82 -58 145
6 56 28 93 78 127 58 39 177 23 214 -29 12 -18 15 -17 69 8 l56 26 -30 38
c-17 22 -56 51 -91 68 -51 26 -73 31 -127 30 -36 0 -85 -7 -108 -15z"/>
<path d="M4795 3416 c-87 -41 -136 -101 -160 -195 -71 -276 260 -471 471 -278
30 27 54 52 54 56 0 3 -23 19 -50 34 l-51 29 -31 -31 c-82 -81 -212 -56 -266
49 -26 51 -25 111 5 160 54 92 197 109 266 32 l19 -20 51 24 c29 13 51 30 49
37 -5 25 -93 96 -139 111 -69 24 -158 21 -218 -8z"/>
<path d="M5503 3422 c-125 -45 -196 -142 -196 -272 0 -154 113 -275 268 -287
263 -21 408 310 216 490 -85 79 -189 104 -288 69z m167 -122 c55 -28 83 -72
88 -140 7 -100 -53 -170 -153 -178 -163 -13 -245 182 -123 295 49 46 124 56
188 23z"/>
<path d="M4105 3417 c-101 -34 -163 -89 -196 -176 -40 -107 -7 -249 74 -317
62 -52 107 -68 192 -68 72 -1 86 2 139 31 l58 32 37 -28 c35 -27 89 -51 117
-51 10 0 14 16 14 58 0 53 -2 58 -30 74 -36 21 -50 53 -50 119 l0 49 -53 0
-54 0 -12 -42 c-31 -103 -137 -155 -234 -114 -70 29 -117 122 -98 191 37 137
206 180 293 76 15 -17 29 -31 31 -31 3 0 25 12 51 26 45 25 46 26 31 54 -47
90 -207 151 -310 117z"/>
<path d="M757 3406 c-122 -45 -191 -146 -191 -276 1 -118 62 -213 169 -262 62
-28 169 -30 229 -4 43 19 138 104 131 116 -3 5 -26 20 -51 34 l-46 26 -31 -30
c-82 -80 -211 -56 -264 50 -29 55 -29 92 -2 147 46 95 173 123 256 56 l38 -30
45 21 c25 12 47 25 49 30 8 17 -51 77 -102 103 -63 32 -171 41 -230 19z"/>
<path d="M2872 3406 c-79 -26 -139 -81 -180 -166 -35 -73 -36 -171 -3 -246 23
-52 102 -141 118 -131 5 3 23 26 41 51 31 44 32 45 13 56 -11 6 -32 31 -47 56
-22 38 -26 53 -22 103 11 158 188 224 299 112 41 -40 62 -101 53 -148 -5 -28
-4 -29 51 -47 31 -10 59 -15 62 -12 3 3 9 37 13 76 6 58 14 79 37 108 44 54
88 76 149 76 145 0 230 -186 132 -291 l-20 -21 39 -52 38 -52 37 42 c94 106
93 285 -4 395 -62 71 -125 99 -223 99 -67 1 -89 -3 -135 -26 -31 -15 -68 -40
-83 -56 l-28 -29 -37 35 c-20 20 -57 44 -82 55 -57 25 -161 31 -218 13z"/>
<path d="M1220 3278 c-57 -39 -75 -72 -75 -138 0 -66 18 -99 75 -137 40 -28
107 -30 157 -7 112 54 112 234 0 288 -50 23 -117 21 -157 -6z"/>
<path d="M2854 2585 c-4 -9 -2 -21 4 -27 15 -15 44 -1 40 19 -4 23 -36 29 -44
8z"/>
<path d="M4154 2585 c-4 -9 -2 -21 4 -27 15 -15 44 -1 40 19 -4 23 -36 29 -44
8z"/>
<path d="M4393 2584 c-6 -17 14 -36 32 -31 6 2 11 13 13 25 3 17 -2 22 -18 22
-11 0 -23 -7 -27 -16z"/>
<path d="M4834 2585 c-4 -9 -2 -21 4 -27 15 -15 44 -1 40 19 -4 23 -36 29 -44
8z"/>
<path d="M2030 2480 l0 -110 65 0 c58 0 65 2 65 20 0 17 -7 20 -40 20 l-40 0
0 90 c0 89 0 90 -25 90 l-25 0 0 -110z"/>
<path d="M2427 2514 c-11 -128 -10 -144 13 -144 18 0 20 7 20 80 0 47 4 80 10
80 6 0 10 -7 10 -15 0 -8 8 -42 17 -76 14 -51 20 -59 37 -57 17 2 25 18 41 76
11 39 23 72 27 72 5 0 8 -36 8 -80 0 -73 2 -80 20 -80 18 0 20 7 20 88 0 115
-5 132 -40 132 -24 0 -28 -5 -45 -62 -25 -91 -27 -95 -32 -81 -2 6 -12 40 -21
75 -16 59 -19 63 -48 66 l-31 3 -6 -77z"/>
<path d="M3287 2583 c-4 -3 -7 -53 -7 -110 l0 -103 25 0 c22 0 25 4 25 39 0
37 1 39 39 45 46 7 62 24 63 67 1 45 -31 69 -91 69 -26 0 -51 -3 -54 -7z m84
-33 c35 -19 14 -70 -30 -70 -12 0 -15 62 -4 73 8 9 11 9 34 -3z"/>
<path d="M3946 2568 c4 -13 19 -61 33 -108 25 -81 28 -85 55 -85 28 0 31 4 63
100 18 54 33 103 33 107 0 4 -9 8 -20 8 -23 0 -31 -17 -51 -103 -8 -31 -16
-57 -20 -57 -3 0 -16 36 -29 80 -20 72 -25 80 -47 80 -21 0 -23 -3 -17 -22z"/>
<path d="M4650 2480 l0 -110 48 0 c65 0 96 18 100 56 2 19 -3 38 -13 48 -14
14 -15 18 -2 37 31 44 -7 79 -88 79 l-45 0 0 -110z m84 74 c35 -13 12 -54 -30
-54 -9 0 -14 11 -14 30 0 30 11 37 44 24z m16 -103 c12 -23 -10 -51 -41 -51
-15 0 -19 7 -19 35 0 31 3 35 25 35 14 0 29 -8 35 -19z"/>
<path d="M2206 2509 c-20 -16 -26 -29 -26 -59 0 -72 84 -106 135 -55 73 72
-28 178 -109 114z m72 -21 c26 -26 8 -88 -25 -88 -23 0 -38 46 -25 75 13 27
31 32 50 13z"/>
<path d="M2701 2504 c-28 -35 -27 -87 1 -114 30 -28 108 -29 108 -1 0 14 -6
17 -24 14 -26 -5 -66 12 -66 27 0 6 23 10 50 10 48 0 50 1 50 28 0 62 -80 85
-119 36z m77 -21 c2 -9 -7 -13 -27 -13 -30 0 -39 9 -24 24 11 10 46 3 51 -11z"/>
<path d="M2860 2528 c-1 -2 -2 -40 -3 -86 -2 -66 -6 -86 -19 -96 -27 -20 -24
-49 5 -41 46 14 57 40 57 136 0 82 -1 89 -20 89 -11 0 -20 -1 -20 -2z"/>
<path d="M2957 2518 c-41 -32 -39 -115 3 -138 31 -16 79 -11 100 10 29 29 28
103 -2 124 -27 19 -78 21 -101 4z m72 -32 c17 -20 10 -67 -11 -79 -23 -15 -48
8 -48 42 0 45 35 66 59 37z"/>
<path d="M3110 2450 c0 -79 0 -80 25 -80 24 0 25 3 25 55 0 49 3 55 23 60 14
4 23 14 23 26 0 23 -13 24 -38 2 -17 -15 -18 -15 -18 0 0 10 -8 17 -20 17 -18
0 -20 -7 -20 -80z"/>
<path d="M3473 2522 c-19 -12 -1 -27 31 -27 16 0 31 -6 34 -12 2 -8 -5 -13
-20 -13 -34 0 -68 -27 -68 -54 0 -35 19 -44 83 -44 l57 1 0 56 c0 74 -18 101
-68 101 -20 0 -42 -4 -49 -8z m72 -92 c0 -22 -32 -37 -47 -22 -11 11 -9 16 7
28 22 16 40 14 40 -6z"/>
<path d="M3620 2450 c0 -79 0 -80 25 -80 24 0 25 3 25 55 0 50 2 55 25 61 16
4 25 13 25 25 0 23 -17 24 -42 2 -17 -15 -18 -15 -18 0 0 10 -8 17 -20 17 -18
0 -20 -7 -20 -80z"/>
<path d="M3750 2520 c-20 -12 -6 -24 32 -24 40 -1 51 -26 11 -26 -52 0 -83
-42 -57 -78 11 -16 25 -20 74 -19 48 0 60 3 55 14 -3 8 -5 36 -5 63 0 31 -6
54 -16 64 -17 18 -71 21 -94 6z m70 -90 c0 -24 -26 -38 -42 -22 -8 8 -8 15 2
27 18 21 40 19 40 -5z"/>
<path d="M4150 2450 c0 -79 0 -80 25 -80 25 0 25 1 25 80 0 79 0 80 -25 80
-25 0 -25 -1 -25 -80z"/>
<path d="M4220 2523 c0 -4 12 -41 26 -80 22 -61 30 -73 49 -73 19 0 27 12 49
73 32 87 32 89 4 85 -17 -2 -24 -13 -31 -43 -15 -70 -19 -72 -36 -15 -13 43
-22 56 -39 58 -12 2 -22 0 -22 -5z"/>
<path d="M4400 2460 c0 -38 -1 -73 -2 -77 -2 -5 7 -9 20 -11 21 -3 22 -1 22
77 0 74 -2 81 -20 81 -18 0 -20 -7 -20 -70z"/>
<path d="M4477 2523 c-4 -3 -7 -39 -7 -80 0 -71 1 -73 24 -73 23 0 25 4 28 53
2 43 7 54 26 62 23 10 31 45 10 45 -6 0 -20 -7 -30 -17 -17 -15 -18 -15 -18 0
0 17 -21 23 -33 10z"/>
<path d="M4830 2450 c0 -77 1 -81 21 -78 19 3 21 9 21 78 0 69 -2 75 -21 78
-20 3 -21 -1 -21 -78z"/>
<path d="M4925 2505 c-33 -32 -33 -78 0 -111 20 -20 33 -25 68 -22 29 2 42 8
42 18 0 9 -7 14 -19 12 -30 -5 -66 7 -66 23 0 11 13 15 50 15 39 0 50 4 50 16
0 19 -19 56 -34 66 -23 16 -67 8 -91 -17z m79 -20 c4 -12 -3 -15 -31 -15 -30
0 -34 2 -23 15 7 8 20 15 30 15 10 0 20 -7 24 -15z"/>
<path d="M5070 2450 c0 -79 0 -80 25 -80 24 0 25 3 25 59 0 58 9 74 38 64 8
-3 12 -25 12 -64 0 -56 1 -59 25 -59 24 0 25 3 25 58 0 36 -6 66 -16 80 -17
24 -53 29 -73 10 -11 -10 -14 -10 -18 0 -3 6 -13 12 -24 12 -17 0 -19 -8 -19
-80z"/>
</g>
</svg>
